<svg width="30" height="30" viewBox="0 0 30 30" fill="none" xmlns="http://www.w3.org/2000/svg">
<path fill-rule="evenodd" clip-rule="evenodd" d="M29.1086 3.27528C29.2868 3.09734 29.4281 2.88605 29.5246 2.65348C29.6211 2.4209 29.6709 2.1716 29.6711 1.91979C29.6712 1.66799 29.6218 1.41863 29.5255 1.18593C29.4293 0.95324 29.2882 0.741776 29.1103 0.563616C28.9323 0.385456 28.7211 0.244089 28.4885 0.147586C28.2559 0.0510826 28.0066 0.00133335 27.7548 0.00117858C27.503 0.00102382 27.2536 0.0504666 27.0209 0.146684C26.7882 0.242901 26.5768 0.384008 26.3986 0.561949L14.8353 12.1253L3.27528 0.561949C2.91547 0.202139 2.42747 -3.79122e-09 1.91862 0C1.40977 3.79122e-09 0.92176 0.202139 0.561949 0.561949C0.202139 0.92176 3.79122e-09 1.40977 0 1.91862C-3.79122e-09 2.42747 0.202139 2.91547 0.561949 3.27528L12.1253 14.8353L0.561949 26.3953C0.383789 26.5734 0.242465 26.785 0.146046 27.0177C0.0496262 27.2505 0 27.5 0 27.7519C0 28.0039 0.0496262 28.2534 0.146046 28.4862C0.242465 28.7189 0.383789 28.9305 0.561949 29.1086C0.92176 29.4684 1.40977 29.6706 1.91862 29.6706C2.17057 29.6706 2.42006 29.6209 2.65284 29.5245C2.88562 29.4281 3.09712 29.2868 3.27528 29.1086L14.8353 17.5453L26.3986 29.1086C26.7584 29.468 27.2463 29.6697 27.7548 29.6694C28.2633 29.6691 28.7509 29.4668 29.1103 29.1069C29.4697 28.7471 29.6714 28.2593 29.6711 27.7508C29.6707 27.2422 29.4684 26.7547 29.1086 26.3953L17.5453 14.8353L29.1086 3.27528Z" fill="black"/>
</svg>
